# xmcd CD database file
#
# Track frame offsets:
#	150
#	32740
#	65532
#	85795
#	112540
#	141702
#	181140
#	213430
#	244960
#	268705
#
# Disc length: 3624 seconds
#
# Revision: 0
# Processed by: cddbd v1.5.1PL2 Copyright (c) Steve Scherf et al.
# Submitted via: CDex 1.51
#
DISCID=8c0e260a
DTITLE=Harald Svensson - Vanished into the blue
DYEAR=1998
DGENRE=Jazz
TTITLE0=In Mary'e Garden
TTITLE1=Dices
TTITLE2=Mojo bieda
TTITLE3=African playground
TTITLE4=Maxwells demon
TTITLE5=Grace
TTITLE6='Round noon
TTITLE7=Omdom
TTITLE8=Lust
TTITLE9=Epilog
EXTD=YEAR: 1998
EXTT0=
EXTT1=
EXTT2=
EXTT3=
EXTT4=
EXTT5=
EXTT6=
EXTT7=
EXTT8=
EXTT9=
PLAYORDER=
